# xmcd
#
# Track frame offsets: 
#        150
#        21447
#        48017
#        65567
#        83585
#        95222
#        112890
#        156157
#        173912
#        191742
#        215610
#        234420
#        252152
#        271130
#        290055
#        312540
#
# Disc length: 4373 seconds
#
# Revision: 1
# Processed by: cddbd v1.5.1PL2 Copyright (c) Steve Scherf et al.
# Submitted via: ExactAudioCopy v0.95a3
#
DISCID=e5111310
DTITLE=Takáts Tamás - Élõ Blues
DYEAR=1996
DGENRE=Blues
TTITLE0=I Am Ready
TTITLE1=Hoochie Coochie Man
TTITLE2=Dust My Broom
TTITLE3=Let's Work Together
TTITLE4=Too Late
TTITLE5=Crossroads
TTITLE6=Rambling On My Mind
TTITLE7=Sweet Home Chicago
TTITLE8=Boom Boom Boom
TTITLE9=Mojo Working
TTITLE10=Oh Babe
TTITLE11=Laza kapcsolat
TTITLE12=Caledonia
TTITLE13=Same All Over
TTITLE14=Little Wing
TTITLE15=Honky Tonk Woman
EXTD=
EXTT0=
EXTT1=
EXTT2=
EXTT3=
EXTT4=
EXTT5=
EXTT6=
EXTT7=
EXTT8=
EXTT9=
EXTT10=
EXTT11=
EXTT12=
EXTT13=
EXTT14=
EXTT15=
PLAYORDER=
